<?xml version="1.0" encoding="UTF-8"?>
<svg width="52px" height="52px" viewBox="0 0 52 52" version="1.1" xmlns="http://www.w3.org/2000/svg" xmlns:xlink="http://www.w3.org/1999/xlink">
    <title>LOGO NEW</title>
    <g id="Symbols" stroke="none" stroke-width="1" fill="none" fill-rule="evenodd">
        <g id="LOGO-NEW" transform="translate(1.000000, 1.000000)">
            <path d="M49.9018416,24.9509208 C49.9018416,38.7311351 38.7309458,49.9018416 24.9509208,49.9018416 C11.1708959,49.9018416 0,38.7311351 0,24.9509208 C0,11.1708959 11.1708959,0 24.9509208,0 C38.7309458,0 49.9018416,11.1708959 49.9018416,24.9509208" id="Fill-1" stroke="#FFFFFF" stroke-width="2"></path>
            <polygon id="Fill-3" fill="#FFFFFF" points="35.2761068 18.717137 28.6771017 18.4438267 33.1587091 13.5901084 31.3555047 11.786904 26.4962975 16.2596156 26.2330187 9.65852842 23.6825642 9.65852842 23.4094432 16.2573443 18.5559142 11.7757368 16.7523312 13.5791305 21.2252321 18.4383377 14.6239557 18.7016166 14.6239557 21.2518817 21.2229608 21.525192 16.7413534 26.3789103 18.5447471 28.1824933 23.3291914 23.7781092 23.5373918 34.4684408 19.7207006 34.7476186 19.7207006 37.1228062 23.5949308 37.4169365 23.6672331 41.1300953 26.2174983 41.1300953 26.2924504 37.4224254 30.207185 37.125456 30.207185 34.7502684 26.3522607 34.4682515 26.5682212 23.7832196 31.3443376 28.1932819 33.1481098 26.3898882 28.6750196 21.530681 35.2761068 21.2674021"></polygon>
        </g>
    </g>
</svg>